<svg width="169" height="47" viewBox="0 0 169 47" fill="none" xmlns="http://www.w3.org/2000/svg">
<path fill-rule="evenodd" clip-rule="evenodd" d="M30.7329 29.8467L48.0002 47H28.3938L20.9297 39.5844L30.7329 29.8467Z" fill="#3843C1"/>
<path d="M17.769 16.6813L28.5995 5.92313H46.787L17.769 34.7473V16.6813Z" fill="#F84923" stroke="#F84923"/>
<path d="M12.0683 4.92308L14.5578 0.942896L17.0472 4.92308H12.0683Z" fill="#F84923" stroke="#F84923"/>
<rect x="13.5513" y="5.92313" width="2.01282" height="40.5769" fill="#F84923" stroke="#F84923"/>
<rect x="9.3335" y="14.359" width="2.01282" height="32.141" fill="#F84923" stroke="#F84923"/>
<circle cx="6.12162" cy="21.391" r="0.5" fill="#F84923" stroke="#F84923" stroke-width="0.807692"/>
<circle cx="10.3399" cy="12.9551" r="0.5" fill="#F84923" stroke="#F84923" stroke-width="0.807692"/>
<rect x="5.11523" y="22.7948" width="2.01282" height="23.7051" fill="#F84923" stroke="#F84923"/>
<path d="M1 27.1987L6.12179 21.4744L10.3397 13.0385L14.5577 4" stroke="#F84923"/>
<path d="M66.132 26L59.524 17.32V26H54.736V6.344H59.524V14.968L66.076 6.344H71.704L64.088 15.976L71.984 26H66.132ZM83.5554 26.196C81.7074 26.196 80.0088 25.7667 78.4594 24.908C76.9288 24.0493 75.7061 22.8547 74.7914 21.324C73.8954 19.7747 73.4474 18.0387 73.4474 16.116C73.4474 14.1933 73.8954 12.4667 74.7914 10.936C75.7061 9.40533 76.9288 8.21067 78.4594 7.352C80.0088 6.49333 81.7074 6.064 83.5554 6.064C85.4034 6.064 87.0928 6.49333 88.6234 7.352C90.1728 8.21067 91.3861 9.40533 92.2634 10.936C93.1594 12.4667 93.6074 14.1933 93.6074 16.116C93.6074 18.0387 93.1594 19.7747 92.2634 21.324C91.3674 22.8547 90.1541 24.0493 88.6234 24.908C87.0928 25.7667 85.4034 26.196 83.5554 26.196ZM83.5554 21.828C85.1234 21.828 86.3741 21.3053 87.3074 20.26C88.2594 19.2147 88.7354 17.8333 88.7354 16.116C88.7354 14.38 88.2594 12.9987 87.3074 11.972C86.3741 10.9267 85.1234 10.404 83.5554 10.404C81.9688 10.404 80.6994 10.9173 79.7474 11.944C78.8141 12.9707 78.3474 14.3613 78.3474 16.116C78.3474 17.852 78.8141 19.2427 79.7474 20.288C80.6994 21.3147 81.9688 21.828 83.5554 21.828ZM113.855 26H109.067L101.059 13.876V26H96.2712V6.344H101.059L109.067 18.524V6.344H113.855V26ZM124.438 26.196C123.001 26.196 121.713 25.9627 120.574 25.496C119.435 25.0293 118.521 24.3387 117.83 23.424C117.158 22.5093 116.803 21.408 116.766 20.12H121.862C121.937 20.848 122.189 21.408 122.618 21.8C123.047 22.1733 123.607 22.36 124.298 22.36C125.007 22.36 125.567 22.2013 125.978 21.884C126.389 21.548 126.594 21.0907 126.594 20.512C126.594 20.0267 126.426 19.6253 126.09 19.308C125.773 18.9907 125.371 18.7293 124.886 18.524C124.419 18.3187 123.747 18.0853 122.87 17.824C121.601 17.432 120.565 17.04 119.762 16.648C118.959 16.256 118.269 15.6773 117.69 14.912C117.111 14.1467 116.822 13.148 116.822 11.916C116.822 10.0867 117.485 8.65867 118.81 7.632C120.135 6.58667 121.862 6.064 123.99 6.064C126.155 6.064 127.901 6.58667 129.226 7.632C130.551 8.65867 131.261 10.096 131.354 11.944H126.174C126.137 11.3093 125.903 10.8147 125.474 10.46C125.045 10.0867 124.494 9.9 123.822 9.9C123.243 9.9 122.777 10.0587 122.422 10.376C122.067 10.6747 121.89 11.1133 121.89 11.692C121.89 12.3267 122.189 12.8213 122.786 13.176C123.383 13.5307 124.317 13.9133 125.586 14.324C126.855 14.7533 127.882 15.164 128.666 15.556C129.469 15.948 130.159 16.5173 130.738 17.264C131.317 18.0107 131.606 18.972 131.606 20.148C131.606 21.268 131.317 22.2853 130.738 23.2C130.178 24.1147 129.357 24.8427 128.274 25.384C127.191 25.9253 125.913 26.196 124.438 26.196ZM146.788 22.528H139.452L138.276 26H133.264L140.376 6.344H145.92L153.032 26H147.964L146.788 22.528ZM145.556 18.832L143.12 11.636L140.712 18.832H145.556ZM159.985 22.304H166.257V26H155.197V6.344H159.985V22.304Z" fill="white"/>
<path d="M60.1641 40.835H61.4766C61.4082 41.4639 61.2282 42.0267 60.9365 42.5234C60.6449 43.0202 60.2324 43.4144 59.6992 43.7061C59.166 43.9932 58.5007 44.1367 57.7031 44.1367C57.1198 44.1367 56.5889 44.0273 56.1104 43.8086C55.6364 43.5898 55.2285 43.2799 54.8867 42.8789C54.5449 42.4733 54.2806 41.988 54.0938 41.4229C53.9115 40.8532 53.8203 40.2197 53.8203 39.5225V38.5312C53.8203 37.834 53.9115 37.2028 54.0938 36.6377C54.2806 36.068 54.5472 35.5804 54.8936 35.1748C55.2445 34.7692 55.666 34.457 56.1582 34.2383C56.6504 34.0195 57.2041 33.9102 57.8193 33.9102C58.5713 33.9102 59.207 34.0514 59.7266 34.334C60.2461 34.6165 60.6494 35.0085 60.9365 35.5098C61.2282 36.0065 61.4082 36.583 61.4766 37.2393H60.1641C60.1003 36.7744 59.9818 36.3757 59.8086 36.043C59.6354 35.7057 59.3893 35.446 59.0703 35.2637C58.7513 35.0814 58.3343 34.9902 57.8193 34.9902C57.3773 34.9902 56.9876 35.0745 56.6504 35.2432C56.3177 35.4118 56.0374 35.651 55.8096 35.9609C55.5863 36.2708 55.4176 36.6423 55.3037 37.0752C55.1898 37.5081 55.1328 37.9889 55.1328 38.5176V39.5225C55.1328 40.0101 55.1829 40.4681 55.2832 40.8965C55.388 41.3249 55.5452 41.7008 55.7549 42.0244C55.9645 42.348 56.2311 42.6032 56.5547 42.79C56.8783 42.9723 57.2611 43.0635 57.7031 43.0635C58.2637 43.0635 58.7103 42.9746 59.043 42.7969C59.3757 42.6191 59.6263 42.3639 59.7949 42.0312C59.9681 41.6986 60.0911 41.2998 60.1641 40.835ZM62.748 40.3838V40.2266C62.748 39.6934 62.8255 39.1989 62.9805 38.7432C63.1354 38.2829 63.3587 37.8841 63.6504 37.5469C63.9421 37.2051 64.2952 36.9408 64.71 36.7539C65.1247 36.5625 65.5895 36.4668 66.1045 36.4668C66.624 36.4668 67.0911 36.5625 67.5059 36.7539C67.9251 36.9408 68.2806 37.2051 68.5723 37.5469C68.8685 37.8841 69.0941 38.2829 69.249 38.7432C69.404 39.1989 69.4814 39.6934 69.4814 40.2266V40.3838C69.4814 40.917 69.404 41.4115 69.249 41.8672C69.0941 42.3229 68.8685 42.7217 68.5723 43.0635C68.2806 43.4007 67.9274 43.665 67.5127 43.8564C67.1025 44.0433 66.6377 44.1367 66.1182 44.1367C65.5986 44.1367 65.1315 44.0433 64.7168 43.8564C64.3021 43.665 63.9466 43.4007 63.6504 43.0635C63.3587 42.7217 63.1354 42.3229 62.9805 41.8672C62.8255 41.4115 62.748 40.917 62.748 40.3838ZM64.0127 40.2266V40.3838C64.0127 40.7529 64.056 41.1016 64.1426 41.4297C64.2292 41.7533 64.359 42.0404 64.5322 42.291C64.71 42.5417 64.931 42.7399 65.1953 42.8857C65.4596 43.027 65.7673 43.0977 66.1182 43.0977C66.4645 43.0977 66.7676 43.027 67.0273 42.8857C67.2917 42.7399 67.5104 42.5417 67.6836 42.291C67.8568 42.0404 67.9867 41.7533 68.0732 41.4297C68.1644 41.1016 68.21 40.7529 68.21 40.3838V40.2266C68.21 39.862 68.1644 39.5179 68.0732 39.1943C67.9867 38.8662 67.8545 38.5768 67.6768 38.3262C67.5036 38.071 67.2848 37.8704 67.0205 37.7246C66.7607 37.5788 66.4554 37.5059 66.1045 37.5059C65.7581 37.5059 65.4528 37.5788 65.1885 37.7246C64.9287 37.8704 64.71 38.071 64.5322 38.3262C64.359 38.5768 64.2292 38.8662 64.1426 39.1943C64.056 39.5179 64.0127 39.862 64.0127 40.2266ZM72.332 38.1826V44H71.0674V36.6035H72.2637L72.332 38.1826ZM72.0312 40.0215L71.5049 40.001C71.5094 39.4951 71.5846 39.028 71.7305 38.5996C71.8763 38.1667 72.0814 37.7907 72.3457 37.4717C72.61 37.1527 72.9245 36.9066 73.2891 36.7334C73.6582 36.5557 74.0661 36.4668 74.5127 36.4668C74.8773 36.4668 75.2054 36.5169 75.4971 36.6172C75.7887 36.7129 76.0371 36.8678 76.2422 37.082C76.4518 37.2962 76.6113 37.5742 76.7207 37.916C76.8301 38.2533 76.8848 38.6657 76.8848 39.1533V44H75.6133V39.1396C75.6133 38.7523 75.5563 38.4424 75.4424 38.21C75.3285 37.973 75.1621 37.8021 74.9434 37.6973C74.7246 37.5879 74.4557 37.5332 74.1367 37.5332C73.8223 37.5332 73.5352 37.5993 73.2754 37.7314C73.0202 37.8636 72.7992 38.0459 72.6123 38.2783C72.43 38.5107 72.2865 38.7773 72.1816 39.0781C72.0814 39.3743 72.0312 39.6888 72.0312 40.0215ZM83.1123 42.0381C83.1123 41.8558 83.0713 41.6872 82.9893 41.5322C82.9118 41.3727 82.75 41.2292 82.5039 41.1016C82.2624 40.9694 81.8978 40.8555 81.4102 40.7598C81 40.6732 80.6286 40.5706 80.2959 40.4521C79.9678 40.3337 79.6875 40.1901 79.4551 40.0215C79.2272 39.8529 79.0518 39.6546 78.9287 39.4268C78.8057 39.1989 78.7441 38.9323 78.7441 38.627C78.7441 38.3353 78.8079 38.0596 78.9355 37.7998C79.0677 37.54 79.2523 37.3099 79.4893 37.1094C79.7308 36.9089 80.0202 36.7516 80.3574 36.6377C80.6947 36.5238 81.0706 36.4668 81.4854 36.4668C82.0778 36.4668 82.5837 36.5716 83.0029 36.7812C83.4222 36.9909 83.7435 37.2712 83.9668 37.6221C84.1901 37.9684 84.3018 38.3535 84.3018 38.7773H83.0371C83.0371 38.5723 82.9756 38.374 82.8525 38.1826C82.734 37.9867 82.5586 37.8249 82.3262 37.6973C82.0983 37.5697 81.818 37.5059 81.4854 37.5059C81.1344 37.5059 80.8496 37.5605 80.6309 37.6699C80.4167 37.7747 80.2594 37.9092 80.1592 38.0732C80.0635 38.2373 80.0156 38.4105 80.0156 38.5928C80.0156 38.7295 80.0384 38.8525 80.084 38.9619C80.1341 39.0667 80.2207 39.1647 80.3438 39.2559C80.4668 39.3424 80.64 39.4245 80.8633 39.502C81.0866 39.5794 81.3714 39.6569 81.7178 39.7344C82.3239 39.8711 82.8229 40.0352 83.2148 40.2266C83.6068 40.418 83.8984 40.6527 84.0898 40.9307C84.2812 41.2087 84.377 41.5459 84.377 41.9424C84.377 42.266 84.3086 42.5622 84.1719 42.8311C84.0397 43.0999 83.846 43.3324 83.5908 43.5283C83.3402 43.7197 83.0394 43.8701 82.6885 43.9795C82.3421 44.0843 81.9525 44.1367 81.5195 44.1367C80.8678 44.1367 80.3164 44.0205 79.8652 43.7881C79.4141 43.5557 79.0723 43.2549 78.8398 42.8857C78.6074 42.5166 78.4912 42.127 78.4912 41.7168H79.7627C79.7809 42.0632 79.8812 42.3389 80.0635 42.5439C80.2458 42.7445 80.4691 42.888 80.7334 42.9746C80.9977 43.0566 81.2598 43.0977 81.5195 43.0977C81.8659 43.0977 82.1553 43.0521 82.3877 42.9609C82.6247 42.8698 82.8047 42.7445 82.9277 42.585C83.0508 42.4255 83.1123 42.2432 83.1123 42.0381ZM90.5635 42.291V36.6035H91.835V44H90.625L90.5635 42.291ZM90.8027 40.7324L91.3291 40.7188C91.3291 41.2109 91.2767 41.6667 91.1719 42.0859C91.0716 42.5007 90.9076 42.8607 90.6797 43.166C90.4518 43.4714 90.1533 43.7106 89.7842 43.8838C89.415 44.0524 88.9661 44.1367 88.4375 44.1367C88.0775 44.1367 87.7471 44.0843 87.4463 43.9795C87.1501 43.8747 86.8949 43.7129 86.6807 43.4941C86.4665 43.2754 86.3001 42.9906 86.1816 42.6396C86.0677 42.2887 86.0107 41.8672 86.0107 41.375V36.6035H87.2754V41.3887C87.2754 41.7214 87.3118 41.9971 87.3848 42.2158C87.4622 42.43 87.5648 42.6009 87.6924 42.7285C87.8245 42.8516 87.9704 42.9382 88.1299 42.9883C88.2939 43.0384 88.4626 43.0635 88.6357 43.0635C89.1735 43.0635 89.5996 42.9609 89.9141 42.7559C90.2285 42.5462 90.4541 42.266 90.5908 41.915C90.7321 41.5596 90.8027 41.1654 90.8027 40.7324ZM95.1367 33.5V44H93.8652V33.5H95.1367ZM100.264 36.6035V37.5742H96.2646V36.6035H100.264ZM97.6182 34.8057H98.8828V42.168C98.8828 42.4186 98.9215 42.6077 98.999 42.7354C99.0765 42.863 99.1768 42.9473 99.2998 42.9883C99.4229 43.0293 99.555 43.0498 99.6963 43.0498C99.8011 43.0498 99.9105 43.0407 100.024 43.0225C100.143 42.9997 100.232 42.9814 100.291 42.9678L100.298 44C100.198 44.0319 100.065 44.0615 99.9014 44.0889C99.7419 44.1208 99.5482 44.1367 99.3203 44.1367C99.0104 44.1367 98.7256 44.0752 98.4658 43.9521C98.2061 43.8291 97.9987 43.624 97.8438 43.3369C97.6934 43.0452 97.6182 42.6533 97.6182 42.1611V34.8057ZM103.121 36.6035V44H101.85V36.6035H103.121ZM101.754 34.6416C101.754 34.4365 101.815 34.2633 101.938 34.1221C102.066 33.9808 102.253 33.9102 102.499 33.9102C102.741 33.9102 102.925 33.9808 103.053 34.1221C103.185 34.2633 103.251 34.4365 103.251 34.6416C103.251 34.8376 103.185 35.0062 103.053 35.1475C102.925 35.2842 102.741 35.3525 102.499 35.3525C102.253 35.3525 102.066 35.2842 101.938 35.1475C101.815 35.0062 101.754 34.8376 101.754 34.6416ZM106.416 38.1826V44H105.151V36.6035H106.348L106.416 38.1826ZM106.115 40.0215L105.589 40.001C105.593 39.4951 105.669 39.028 105.814 38.5996C105.96 38.1667 106.165 37.7907 106.43 37.4717C106.694 37.1527 107.008 36.9066 107.373 36.7334C107.742 36.5557 108.15 36.4668 108.597 36.4668C108.961 36.4668 109.289 36.5169 109.581 36.6172C109.873 36.7129 110.121 36.8678 110.326 37.082C110.536 37.2962 110.695 37.5742 110.805 37.916C110.914 38.2533 110.969 38.6657 110.969 39.1533V44H109.697V39.1396C109.697 38.7523 109.64 38.4424 109.526 38.21C109.412 37.973 109.246 37.8021 109.027 37.6973C108.809 37.5879 108.54 37.5332 108.221 37.5332C107.906 37.5332 107.619 37.5993 107.359 37.7314C107.104 37.8636 106.883 38.0459 106.696 38.2783C106.514 38.5107 106.37 38.7773 106.266 39.0781C106.165 39.3743 106.115 39.6888 106.115 40.0215ZM117.682 36.6035H118.83V43.8428C118.83 44.4945 118.698 45.0505 118.434 45.5107C118.169 45.971 117.8 46.3197 117.326 46.5566C116.857 46.7982 116.314 46.9189 115.699 46.9189C115.444 46.9189 115.143 46.8779 114.797 46.7959C114.455 46.7184 114.118 46.584 113.785 46.3926C113.457 46.2057 113.181 45.9528 112.958 45.6338L113.621 44.8818C113.931 45.2555 114.255 45.5153 114.592 45.6611C114.934 45.807 115.271 45.8799 115.604 45.8799C116.005 45.8799 116.351 45.8047 116.643 45.6543C116.934 45.5039 117.16 45.2806 117.319 44.9844C117.483 44.6927 117.565 44.3327 117.565 43.9043V38.2305L117.682 36.6035ZM112.589 40.3838V40.2402C112.589 39.6751 112.655 39.1624 112.787 38.7021C112.924 38.2373 113.118 37.8385 113.368 37.5059C113.623 37.1732 113.931 36.918 114.291 36.7402C114.651 36.5579 115.057 36.4668 115.508 36.4668C115.973 36.4668 116.378 36.5488 116.725 36.7129C117.076 36.8724 117.372 37.1071 117.613 37.417C117.859 37.7223 118.053 38.0915 118.194 38.5244C118.336 38.9574 118.434 39.4473 118.488 39.9941V40.623C118.438 41.1654 118.34 41.653 118.194 42.0859C118.053 42.5189 117.859 42.888 117.613 43.1934C117.372 43.4987 117.076 43.7334 116.725 43.8975C116.374 44.057 115.964 44.1367 115.494 44.1367C115.052 44.1367 114.651 44.0433 114.291 43.8564C113.936 43.6696 113.63 43.4076 113.375 43.0703C113.12 42.7331 112.924 42.3366 112.787 41.8809C112.655 41.4206 112.589 40.9215 112.589 40.3838ZM113.854 40.2402V40.3838C113.854 40.7529 113.89 41.0993 113.963 41.4229C114.04 41.7464 114.157 42.0312 114.312 42.2773C114.471 42.5234 114.674 42.7171 114.92 42.8584C115.166 42.9951 115.46 43.0635 115.802 43.0635C116.221 43.0635 116.567 42.9746 116.841 42.7969C117.114 42.6191 117.331 42.3844 117.49 42.0928C117.654 41.8011 117.782 41.4844 117.873 41.1426V39.4951C117.823 39.2445 117.745 39.0029 117.641 38.7705C117.54 38.5335 117.408 38.3239 117.244 38.1416C117.085 37.9548 116.886 37.8066 116.649 37.6973C116.412 37.5879 116.134 37.5332 115.815 37.5332C115.469 37.5332 115.171 37.6061 114.92 37.752C114.674 37.8932 114.471 38.0892 114.312 38.3398C114.157 38.5859 114.04 38.873 113.963 39.2012C113.89 39.5247 113.854 39.8711 113.854 40.2402ZM129.72 41.4844C129.72 41.252 129.683 41.0469 129.61 40.8691C129.542 40.6868 129.419 40.5228 129.241 40.377C129.068 40.2311 128.826 40.0921 128.517 39.96C128.211 39.8278 127.824 39.6934 127.354 39.5566C126.862 39.4108 126.418 39.249 126.021 39.0713C125.625 38.889 125.285 38.6816 125.003 38.4492C124.72 38.2168 124.504 37.9502 124.354 37.6494C124.203 37.3486 124.128 37.0046 124.128 36.6172C124.128 36.2298 124.208 35.8721 124.367 35.5439C124.527 35.2158 124.755 34.931 125.051 34.6895C125.352 34.4434 125.709 34.252 126.124 34.1152C126.539 33.9785 127.001 33.9102 127.512 33.9102C128.259 33.9102 128.893 34.0537 129.412 34.3408C129.936 34.6234 130.335 34.9948 130.608 35.4551C130.882 35.9108 131.019 36.3984 131.019 36.918H129.706C129.706 36.5443 129.626 36.2139 129.467 35.9268C129.307 35.6351 129.066 35.4072 128.742 35.2432C128.419 35.0745 128.008 34.9902 127.512 34.9902C127.042 34.9902 126.655 35.0609 126.35 35.2021C126.044 35.3434 125.816 35.5348 125.666 35.7764C125.52 36.0179 125.447 36.2936 125.447 36.6035C125.447 36.8132 125.491 37.0046 125.577 37.1777C125.668 37.3464 125.807 37.5036 125.994 37.6494C126.186 37.7952 126.427 37.9297 126.719 38.0527C127.015 38.1758 127.368 38.2943 127.778 38.4082C128.343 38.5677 128.831 38.7454 129.241 38.9414C129.651 39.1374 129.989 39.3584 130.253 39.6045C130.522 39.846 130.72 40.1217 130.848 40.4316C130.98 40.737 131.046 41.0833 131.046 41.4707C131.046 41.8763 130.964 42.2432 130.8 42.5713C130.636 42.8994 130.401 43.1797 130.096 43.4121C129.79 43.6445 129.424 43.8245 128.995 43.9521C128.571 44.0752 128.097 44.1367 127.573 44.1367C127.113 44.1367 126.66 44.0729 126.213 43.9453C125.771 43.8177 125.368 43.6263 125.003 43.3711C124.643 43.1159 124.354 42.8014 124.135 42.4277C123.921 42.0495 123.813 41.612 123.813 41.1152H125.126C125.126 41.457 125.192 41.751 125.324 41.9971C125.456 42.2386 125.636 42.4391 125.864 42.5986C126.097 42.7581 126.359 42.8766 126.65 42.9541C126.947 43.027 127.254 43.0635 127.573 43.0635C128.034 43.0635 128.423 42.9997 128.742 42.8721C129.061 42.7445 129.303 42.5622 129.467 42.3252C129.635 42.0882 129.72 41.8079 129.72 41.4844ZM135.605 44.1367C135.09 44.1367 134.623 44.0501 134.204 43.877C133.789 43.6992 133.432 43.4508 133.131 43.1318C132.835 42.8128 132.607 42.4346 132.447 41.9971C132.288 41.5596 132.208 41.0811 132.208 40.5615V40.2744C132.208 39.6729 132.297 39.1374 132.475 38.668C132.652 38.194 132.894 37.793 133.199 37.4648C133.505 37.1367 133.851 36.8883 134.238 36.7197C134.626 36.5511 135.027 36.4668 135.441 36.4668C135.97 36.4668 136.426 36.5579 136.809 36.7402C137.196 36.9225 137.513 37.1777 137.759 37.5059C138.005 37.8294 138.187 38.2122 138.306 38.6543C138.424 39.0918 138.483 39.5703 138.483 40.0898V40.6572H132.96V39.625H137.219V39.5293C137.201 39.2012 137.132 38.8822 137.014 38.5723C136.9 38.2624 136.717 38.0072 136.467 37.8066C136.216 37.6061 135.874 37.5059 135.441 37.5059C135.154 37.5059 134.89 37.5674 134.648 37.6904C134.407 37.8089 134.2 37.9867 134.026 38.2236C133.853 38.4606 133.719 38.75 133.623 39.0918C133.527 39.4336 133.479 39.8278 133.479 40.2744V40.5615C133.479 40.9124 133.527 41.2428 133.623 41.5527C133.723 41.8581 133.867 42.127 134.054 42.3594C134.245 42.5918 134.475 42.7741 134.744 42.9062C135.018 43.0384 135.327 43.1045 135.674 43.1045C136.12 43.1045 136.499 43.0133 136.809 42.8311C137.118 42.6488 137.39 42.4049 137.622 42.0996L138.388 42.708C138.228 42.9495 138.025 43.1797 137.779 43.3984C137.533 43.6172 137.23 43.7949 136.87 43.9316C136.515 44.0684 136.093 44.1367 135.605 44.1367ZM141.225 37.7656V44H139.96V36.6035H141.19L141.225 37.7656ZM143.535 36.5625L143.528 37.7383C143.424 37.7155 143.323 37.7018 143.228 37.6973C143.136 37.6882 143.032 37.6836 142.913 37.6836C142.621 37.6836 142.364 37.7292 142.141 37.8203C141.917 37.9115 141.728 38.0391 141.573 38.2031C141.418 38.3672 141.295 38.5632 141.204 38.791C141.118 39.0143 141.061 39.2604 141.033 39.5293L140.678 39.7344C140.678 39.2878 140.721 38.8685 140.808 38.4766C140.899 38.0846 141.038 37.7383 141.225 37.4375C141.411 37.1322 141.648 36.8952 141.936 36.7266C142.227 36.5534 142.574 36.4668 142.975 36.4668C143.066 36.4668 143.171 36.4782 143.289 36.501C143.408 36.5192 143.49 36.5397 143.535 36.5625ZM147.076 42.8584L149.1 36.6035H150.392L147.732 44H146.885L147.076 42.8584ZM145.388 36.6035L147.473 42.8926L147.616 44H146.769L144.089 36.6035H145.388ZM152.982 36.6035V44H151.711V36.6035H152.982ZM151.615 34.6416C151.615 34.4365 151.677 34.2633 151.8 34.1221C151.927 33.9808 152.114 33.9102 152.36 33.9102C152.602 33.9102 152.786 33.9808 152.914 34.1221C153.046 34.2633 153.112 34.4365 153.112 34.6416C153.112 34.8376 153.046 35.0062 152.914 35.1475C152.786 35.2842 152.602 35.3525 152.36 35.3525C152.114 35.3525 151.927 35.2842 151.8 35.1475C151.677 35.0062 151.615 34.8376 151.615 34.6416ZM157.973 43.0977C158.273 43.0977 158.551 43.0361 158.807 42.9131C159.062 42.79 159.271 42.6214 159.436 42.4072C159.6 42.1885 159.693 41.9401 159.716 41.6621H160.919C160.896 42.0996 160.748 42.5075 160.475 42.8857C160.206 43.2594 159.853 43.5625 159.415 43.7949C158.978 44.0228 158.497 44.1367 157.973 44.1367C157.417 44.1367 156.931 44.0387 156.517 43.8428C156.106 43.6468 155.765 43.3779 155.491 43.0361C155.222 42.6943 155.02 42.3024 154.883 41.8604C154.751 41.4137 154.685 40.9421 154.685 40.4453V40.1582C154.685 39.6615 154.751 39.1921 154.883 38.75C155.02 38.3034 155.222 37.9092 155.491 37.5674C155.765 37.2256 156.106 36.9567 156.517 36.7607C156.931 36.5648 157.417 36.4668 157.973 36.4668C158.551 36.4668 159.057 36.5853 159.49 36.8223C159.923 37.0547 160.263 37.3737 160.509 37.7793C160.759 38.1803 160.896 38.6361 160.919 39.1465H159.716C159.693 38.8411 159.606 38.5654 159.456 38.3193C159.31 38.0732 159.11 37.8773 158.854 37.7314C158.604 37.5811 158.31 37.5059 157.973 37.5059C157.585 37.5059 157.259 37.5833 156.995 37.7383C156.735 37.8887 156.528 38.0938 156.373 38.3535C156.223 38.6087 156.113 38.8936 156.045 39.208C155.981 39.5179 155.949 39.8346 155.949 40.1582V40.4453C155.949 40.7689 155.981 41.0879 156.045 41.4023C156.109 41.7168 156.216 42.0016 156.366 42.2568C156.521 42.512 156.729 42.7171 156.988 42.8721C157.253 43.0225 157.581 43.0977 157.973 43.0977ZM165.41 44.1367C164.895 44.1367 164.428 44.0501 164.009 43.877C163.594 43.6992 163.236 43.4508 162.936 43.1318C162.639 42.8128 162.411 42.4346 162.252 41.9971C162.092 41.5596 162.013 41.0811 162.013 40.5615V40.2744C162.013 39.6729 162.102 39.1374 162.279 38.668C162.457 38.194 162.699 37.793 163.004 37.4648C163.309 37.1367 163.656 36.8883 164.043 36.7197C164.43 36.5511 164.831 36.4668 165.246 36.4668C165.775 36.4668 166.23 36.5579 166.613 36.7402C167.001 36.9225 167.317 37.1777 167.563 37.5059C167.81 37.8294 167.992 38.2122 168.11 38.6543C168.229 39.0918 168.288 39.5703 168.288 40.0898V40.6572H162.765V39.625H167.023V39.5293C167.005 39.2012 166.937 38.8822 166.818 38.5723C166.704 38.2624 166.522 38.0072 166.271 37.8066C166.021 37.6061 165.679 37.5059 165.246 37.5059C164.959 37.5059 164.695 37.5674 164.453 37.6904C164.212 37.8089 164.004 37.9867 163.831 38.2236C163.658 38.4606 163.523 38.75 163.428 39.0918C163.332 39.4336 163.284 39.8278 163.284 40.2744V40.5615C163.284 40.9124 163.332 41.2428 163.428 41.5527C163.528 41.8581 163.672 42.127 163.858 42.3594C164.05 42.5918 164.28 42.7741 164.549 42.9062C164.822 43.0384 165.132 43.1045 165.479 43.1045C165.925 43.1045 166.303 43.0133 166.613 42.8311C166.923 42.6488 167.194 42.4049 167.427 42.0996L168.192 42.708C168.033 42.9495 167.83 43.1797 167.584 43.3984C167.338 43.6172 167.035 43.7949 166.675 43.9316C166.319 44.0684 165.898 44.1367 165.41 44.1367Z" fill="#F84923"/>
</svg>
